<svg width="9" height="11" fill="none" xmlns="http://www.w3.org/2000/svg"><path d="M8.646 10.163H.939V.138h3.904c.835 0 1.517.149 2.045.446.505.275.924.684 1.21 1.181.29.504.439 1.076.432 1.657a3.18 3.18 0 0 1-.691 2.01 3.255 3.255 0 0 1-1.743 1.173l2.55 3.558ZM1.472 1.016v5.171h3.702l-3.702-5.17Zm0 8.614h6.165L5.534 6.706l-.446.014H1.472v2.91ZM1.847.67l3.918 5.474a2.756 2.756 0 0 0 1.599-.965c.415-.49.64-1.114.633-1.757a2.746 2.746 0 0 0-.389-1.44A2.556 2.556 0 0 0 6.514.988C6.09.776 5.539.67 4.857.67h-3.01Z" fill="#fff"/></svg>