<svg width="13" height="17" fill="none" xmlns="http://www.w3.org/2000/svg"><path d="M13 16.84H.07V.02h6.55c1.402 0 2.546.25 3.432.75a5.22 5.22 0 0 1 2.03 1.981c.485.845.735 1.805.725 2.78a5.334 5.334 0 0 1-1.16 3.37 5.46 5.46 0 0 1-2.925 1.97L13 16.841ZM.965 1.494v8.676h6.21L.966 1.494Zm0 14.452h10.343L7.78 11.04l-.75.024H.966v4.882ZM1.593.914l6.574 9.184a4.623 4.623 0 0 0 2.682-1.62 4.482 4.482 0 0 0 1.063-2.948 4.608 4.608 0 0 0-.652-2.417 4.289 4.289 0 0 0-1.837-1.667C8.714 1.092 7.788.914 6.644.914h-5.05Z" fill="#fff"/></svg>