<svg width="9" height="12" fill="none" xmlns="http://www.w3.org/2000/svg"><path d="M1.238 10.436C.484 9.778.112 8.79.122 7.476h2.347c-.01.547.154.965.49 1.253.336.288.807.432 1.412.432.5 0 .893-.082 1.18-.245a.805.805 0 0 0 .433-.749c0-.279-.146-.48-.44-.605-.279-.12-.571-.21-.87-.266a49.194 49.194 0 0 0-.534-.097 11.552 11.552 0 0 1-1.915-.528A3.34 3.34 0 0 1 .87 5.735c-.365-.422-.548-.98-.548-1.67 0-.692.183-1.28.548-1.765a3.293 3.293 0 0 1 1.462-1.088 5.399 5.399 0 0 1 1.995-.36c.873 0 1.63.163 2.268.49.639.326 1.14.82 1.505 1.483.17.28.282.591.332.915.038.284.057.57.057.857H6.142c0-.518-.139-.9-.417-1.145-.279-.245-.71-.367-1.297-.367-.47 0-.835.081-1.094.245-.26.163-.39.384-.39.662 0 .308.174.533.52.677.424.168.863.298 1.31.39.864.172 1.539.338 2.024.496.489.161.924.453 1.26.843.356.403.533.97.533 1.7 0 .69-.192 1.286-.576 1.785-.384.5-.89.882-1.52 1.146a5.212 5.212 0 0 1-2.038.396c-1.392-.002-2.465-.332-3.219-.99Z" fill="#fff"/></svg>