<svg width="15" height="19" fill="none" xmlns="http://www.w3.org/2000/svg"><path d="M2.56 16.62C1.296 15.516.671 13.86.687 11.653h3.94c-.017.919.257 1.62.821 2.103.564.483 1.354.725 2.369.725.837 0 1.498-.137 1.981-.41.484-.275.725-.694.725-1.258 0-.467-.245-.805-.737-1.014a6.896 6.896 0 0 0-1.462-.448 83.155 83.155 0 0 0-.894-.16 19.386 19.386 0 0 1-3.214-.887 5.604 5.604 0 0 1-2.272-1.57c-.612-.71-.918-1.644-.918-2.804s.306-2.147.918-2.96c.612-.814 1.43-1.422 2.453-1.825A9.058 9.058 0 0 1 7.744.541c1.466 0 2.735.274 3.806.821 1.072.548 1.913 1.378 2.526 2.49.284.47.473.991.556 1.534.063.477.095.957.096 1.438H10.79c0-.87-.233-1.51-.7-1.921-.468-.41-1.193-.616-2.176-.616-.79 0-1.401.137-1.836.41-.435.274-.653.645-.653 1.112 0 .516.29.894.87 1.136.713.282 1.449.5 2.2.652 1.45.29 2.581.568 3.395.834.82.27 1.55.76 2.114 1.414.596.677.894 1.627.894 2.852 0 1.16-.322 2.159-.966 2.996-.645.838-1.494 1.479-2.55 1.922a8.746 8.746 0 0 1-3.42.664c-2.336-.003-4.136-.556-5.4-1.66Z" fill="#fff"/></svg>